<svg width="672.5" height="1552.0" viewBox="0 0 672.5 1552.0" xmlns="http://www.w3.org/2000/svg">
<style>
    svg {
        font-family: SFMono-Regular,Consolas,Liberation Mono,Menlo,monospace;
        font-size: 14px;
        font-kerning: normal;
        text-rendering: optimizeLegibility;
        fill: #24292e;
    }

    rect {
        fill: #f6f8fa;
    }

    .green {
        fill: #fdd;
    }

    .green {
        fill: #dfd;
    }

    .purple {
        fill: #ddf;
    }

    .yellow {
        fill: #ffd;
    }

    .blue {
        fill: #dff;
    }

    .pink {
        fill: #fdf;
    }

    .grey {
        fill: #ddd;
    }

    .red {
        fill: #fdd;
    }

    .none {
        fill: #fff;
        fill-opacity: 0.0;
    }
</style>
<rect rx="6" ry="6" x="29.5" y="24.5" width="55" height="45" class="" />
<text text-anchor="middle" dominant-baseline="middle" x="57.0" y="47.0">j</text>
<rect rx="6" ry="6" x="88.5" y="24.5" width="55" height="45" class="" />
<text text-anchor="middle" dominant-baseline="middle" x="116.0" y="47.0">w</text>
<rect rx="6" ry="6" x="147.5" y="24.5" width="55" height="45" class="" />
<text text-anchor="middle" dominant-baseline="middle" x="175.0" y="47.0">h</text>
<rect rx="6" ry="6" x="206.5" y="24.5" width="55" height="45" class="" />
<text text-anchor="middle" dominant-baseline="middle" x="234.0" y="47.0">p</text>
<rect rx="6" ry="6" x="265.5" y="24.5" width="55" height="45" class="" />
<text text-anchor="middle" dominant-baseline="middle" x="293.0" y="47.0">b</text>
<rect rx="6" ry="6" x="29.5" y="73.5" width="55" height="45" class="" />
<text text-anchor="middle" dominant-baseline="middle" x="57.0" y="96.0">c</text>
<rect rx="6" ry="6" x="88.5" y="73.5" width="55" height="45" class="" />
<text text-anchor="middle" dominant-baseline="middle" x="116.0" y="96.0">s</text>
<rect rx="6" ry="6" x="147.5" y="73.5" width="55" height="45" class="" />
<text text-anchor="middle" dominant-baseline="middle" x="175.0" y="96.0">n</text>
<rect rx="6" ry="6" x="206.5" y="73.5" width="55" height="45" class="" />
<text text-anchor="middle" dominant-baseline="middle" x="234.0" y="96.0">t</text>
<rect rx="6" ry="6" x="265.5" y="73.5" width="55" height="45" class="" />
<text text-anchor="middle" dominant-baseline="middle" x="293.0" y="96.0">g</text>
<rect rx="6" ry="6" x="29.5" y="122.5" width="55" height="45" class="" />
<text text-anchor="middle" dominant-baseline="middle" x="57.0" y="136.0">"</text>
<text text-anchor="middle" dominant-baseline="middle" x="57.0" y="154.0">'</text>
<rect rx="6" ry="6" x="88.5" y="122.5" width="55" height="45" class="" />
<text text-anchor="middle" dominant-baseline="middle" x="116.0" y="145.0">f</text>
<rect rx="6" ry="6" x="147.5" y="122.5" width="55" height="45" class="" />
<text text-anchor="middle" dominant-baseline="middle" x="175.0" y="145.0">l</text>
<rect rx="6" ry="6" x="206.5" y="122.5" width="55" height="45" class="" />
<text text-anchor="middle" dominant-baseline="middle" x="234.0" y="145.0">d</text>
<rect rx="6" ry="6" x="265.5" y="122.5" width="55" height="45" class="" />
<text text-anchor="middle" dominant-baseline="middle" x="293.0" y="145.0">v</text>
<rect rx="6" ry="6" x="352.0" y="24.5" width="55" height="45" class="" />
<text text-anchor="middle" dominant-baseline="middle" x="379.5" y="38.0">?</text>
<text text-anchor="middle" dominant-baseline="middle" x="379.5" y="56.0">/</text>
<rect rx="6" ry="6" x="411.0" y="24.5" width="55" height="45" class="" />
<text text-anchor="middle" dominant-baseline="middle" x="438.5" y="47.0">m</text>
<rect rx="6" ry="6" x="470.0" y="24.5" width="55" height="45" class="" />
<text text-anchor="middle" dominant-baseline="middle" x="497.5" y="47.0">u</text>
<rect rx="6" ry="6" x="529.0" y="24.5" width="55" height="45" class="" />
<text text-anchor="middle" dominant-baseline="middle" x="556.5" y="47.0">a</text>
<rect rx="6" ry="6" x="588.0" y="24.5" width="55" height="45" class="" />
<text text-anchor="middle" dominant-baseline="middle" x="615.5" y="38.0">@</text>
<text text-anchor="middle" dominant-baseline="middle" x="615.5" y="56.0">#</text>
<rect rx="6" ry="6" x="352.0" y="73.5" width="55" height="45" class="" />
<text text-anchor="middle" dominant-baseline="middle" x="379.5" y="87.0">!</text>
<text text-anchor="middle" dominant-baseline="middle" x="379.5" y="105.0">-</text>
<rect rx="6" ry="6" x="411.0" y="73.5" width="55" height="45" class="" />
<text text-anchor="middle" dominant-baseline="middle" x="438.5" y="96.0">r</text>
<rect rx="6" ry="6" x="470.0" y="73.5" width="55" height="45" class="" />
<text text-anchor="middle" dominant-baseline="middle" x="497.5" y="96.0">e</text>
<rect rx="6" ry="6" x="529.0" y="73.5" width="55" height="45" class="" />
<text text-anchor="middle" dominant-baseline="middle" x="556.5" y="96.0">o</text>
<rect rx="6" ry="6" x="588.0" y="73.5" width="55" height="45" class="" />
<text text-anchor="middle" dominant-baseline="middle" x="615.5" y="96.0">i</text>
<rect rx="6" ry="6" x="352.0" y="122.5" width="55" height="45" class="" />
<text text-anchor="middle" dominant-baseline="middle" x="379.5" y="136.0">~</text>
<text text-anchor="middle" dominant-baseline="middle" x="379.5" y="154.0">`</text>
<rect rx="6" ry="6" x="411.0" y="122.5" width="55" height="45" class="" />
<text text-anchor="middle" dominant-baseline="middle" x="438.5" y="145.0">k</text>
<rect rx="6" ry="6" x="470.0" y="122.5" width="55" height="45" class="" />
<text text-anchor="middle" dominant-baseline="middle" x="497.5" y="136.0">;</text>
<text text-anchor="middle" dominant-baseline="middle" x="497.5" y="154.0">,</text>
<rect rx="6" ry="6" x="529.0" y="122.5" width="55" height="45" class="" />
<text text-anchor="middle" dominant-baseline="middle" x="556.5" y="136.0">:</text>
<text text-anchor="middle" dominant-baseline="middle" x="556.5" y="154.0">.</text>
<rect rx="6" ry="6" x="588.0" y="122.5" width="55" height="45" class="" />
<text text-anchor="middle" dominant-baseline="middle" x="615.5" y="145.0">y</text>
<rect rx="6" ry="6" x="206.5" y="171.5" width="55" height="45" class="" />
<text text-anchor="middle" dominant-baseline="middle" x="234.0" y="194.0">nav</text>
<rect rx="6" ry="6" x="265.5" y="171.5" width="55" height="45" class="" />
<text text-anchor="middle" dominant-baseline="middle" x="293.0" y="185.0">_</text>
<text text-anchor="middle" dominant-baseline="middle" x="293.0" y="203.0">space</text>
<rect rx="6" ry="6" x="352.0" y="171.5" width="55" height="45" class="" />
<text text-anchor="middle" dominant-baseline="middle" x="379.5" y="194.0">shift</text>
<rect rx="6" ry="6" x="411.0" y="171.5" width="55" height="45" class="" />
<text text-anchor="middle" dominant-baseline="middle" x="438.5" y="194.0">num</text>
<rect rx="6" ry="6" x="29.5" y="243.0" width="55" height="45" class="" />
<text text-anchor="middle" dominant-baseline="middle" x="57.0" y="265.5">esc</text>
<rect rx="6" ry="6" x="88.5" y="243.0" width="55" height="45" class="" />
<text text-anchor="middle" dominant-baseline="middle" x="116.0" y="265.5">back</text>
<rect rx="6" ry="6" x="147.5" y="243.0" width="55" height="45" class="" />
<text text-anchor="middle" dominant-baseline="middle" x="175.0" y="265.5">fwd</text>
<rect rx="6" ry="6" x="206.5" y="243.0" width="55" height="45" class="" />
<text text-anchor="middle" dominant-baseline="middle" x="234.0" y="256.5">swap</text>
<text text-anchor="middle" dominant-baseline="middle" x="234.0" y="274.5">win</text>
<rect rx="6" ry="6" x="265.5" y="243.0" width="55" height="45" class="" />
<text text-anchor="middle" dominant-baseline="middle" x="293.0" y="256.5">screen</text>
<text text-anchor="middle" dominant-baseline="middle" x="293.0" y="274.5">shot</text>
<rect rx="6" ry="6" x="29.5" y="292.0" width="55" height="45" class="" />
<text text-anchor="middle" dominant-baseline="middle" x="57.0" y="314.5">ctrl</text>
<rect rx="6" ry="6" x="88.5" y="292.0" width="55" height="45" class="" />
<text text-anchor="middle" dominant-baseline="middle" x="116.0" y="314.5">alt</text>
<rect rx="6" ry="6" x="147.5" y="292.0" width="55" height="45" class="" />
<text text-anchor="middle" dominant-baseline="middle" x="175.0" y="314.5">shift</text>
<rect rx="6" ry="6" x="206.5" y="292.0" width="55" height="45" class="" />
<text text-anchor="middle" dominant-baseline="middle" x="234.0" y="314.5">cmd</text>
<rect rx="6" ry="6" x="265.5" y="292.0" width="55" height="45" class="" />
<text text-anchor="middle" dominant-baseline="middle" x="293.0" y="314.5">search</text>
<rect rx="6" ry="6" x="29.5" y="341.0" width="55" height="45" class="" />
<text text-anchor="middle" dominant-baseline="middle" x="57.0" y="363.5">undo</text>
<rect rx="6" ry="6" x="88.5" y="341.0" width="55" height="45" class="" />
<text text-anchor="middle" dominant-baseline="middle" x="116.0" y="363.5">cut</text>
<rect rx="6" ry="6" x="147.5" y="341.0" width="55" height="45" class="" />
<text text-anchor="middle" dominant-baseline="middle" x="175.0" y="363.5">copy</text>
<rect rx="6" ry="6" x="206.5" y="341.0" width="55" height="45" class="" />
<text text-anchor="middle" dominant-baseline="middle" x="234.0" y="363.5">paste</text>
<rect rx="6" ry="6" x="265.5" y="341.0" width="55" height="45" class="" />
<text text-anchor="middle" dominant-baseline="middle" x="293.0" y="363.5">lock</text>
<rect rx="6" ry="6" x="352.0" y="243.0" width="55" height="45" class="" />
<text text-anchor="middle" dominant-baseline="middle" x="379.5" y="256.5">page</text>
<text text-anchor="middle" dominant-baseline="middle" x="379.5" y="274.5">up</text>
<rect rx="6" ry="6" x="411.0" y="243.0" width="55" height="45" class="" />
<text text-anchor="middle" dominant-baseline="middle" x="438.5" y="256.5">shift</text>
<text text-anchor="middle" dominant-baseline="middle" x="438.5" y="274.5">tab</text>
<rect rx="6" ry="6" x="470.0" y="243.0" width="55" height="45" class="" />
<text text-anchor="middle" dominant-baseline="middle" x="497.5" y="265.5">up</text>
<rect rx="6" ry="6" x="529.0" y="243.0" width="55" height="45" class="" />
<text text-anchor="middle" dominant-baseline="middle" x="556.5" y="265.5">tab</text>
<rect rx="6" ry="6" x="588.0" y="243.0" width="55" height="45" class="" />
<rect rx="6" ry="6" x="352.0" y="292.0" width="55" height="45" class="" />
<text text-anchor="middle" dominant-baseline="middle" x="379.5" y="305.5">page</text>
<text text-anchor="middle" dominant-baseline="middle" x="379.5" y="323.5">down</text>
<rect rx="6" ry="6" x="411.0" y="292.0" width="55" height="45" class="" />
<text text-anchor="middle" dominant-baseline="middle" x="438.5" y="314.5">left</text>
<rect rx="6" ry="6" x="470.0" y="292.0" width="55" height="45" class="" />
<text text-anchor="middle" dominant-baseline="middle" x="497.5" y="314.5">down</text>
<rect rx="6" ry="6" x="529.0" y="292.0" width="55" height="45" class="" />
<text text-anchor="middle" dominant-baseline="middle" x="556.5" y="314.5">right</text>
<rect rx="6" ry="6" x="588.0" y="292.0" width="55" height="45" class="" />
<rect rx="6" ry="6" x="352.0" y="341.0" width="55" height="45" class="" />
<text text-anchor="middle" dominant-baseline="middle" x="379.5" y="354.5">swap</text>
<text text-anchor="middle" dominant-baseline="middle" x="379.5" y="372.5">lang</text>
<rect rx="6" ry="6" x="411.0" y="341.0" width="55" height="45" class="" />
<text text-anchor="middle" dominant-baseline="middle" x="438.5" y="363.5">home</text>
<rect rx="6" ry="6" x="470.0" y="341.0" width="55" height="45" class="" />
<text text-anchor="middle" dominant-baseline="middle" x="497.5" y="363.5">enter</text>
<rect rx="6" ry="6" x="529.0" y="341.0" width="55" height="45" class="" />
<text text-anchor="middle" dominant-baseline="middle" x="556.5" y="363.5">end</text>
<rect rx="6" ry="6" x="588.0" y="341.0" width="55" height="45" class="" />
<rect rx="6" ry="6" x="206.5" y="390.0" width="55" height="45" class="red" />
<text text-anchor="middle" dominant-baseline="middle" x="234.0" y="412.5">nav</text>
<rect rx="6" ry="6" x="265.5" y="390.0" width="55" height="45" class="" />
<rect rx="6" ry="6" x="352.0" y="390.0" width="55" height="45" class="" />
<text text-anchor="middle" dominant-baseline="middle" x="379.5" y="403.5">del</text>
<text text-anchor="middle" dominant-baseline="middle" x="379.5" y="421.5">bspc</text>
<rect rx="6" ry="6" x="411.0" y="390.0" width="55" height="45" class="" />
<text text-anchor="middle" dominant-baseline="middle" x="438.5" y="412.5">num</text>
<rect rx="6" ry="6" x="29.5" y="461.5" width="55" height="45" class="" />
<rect rx="6" ry="6" x="88.5" y="461.5" width="55" height="45" class="" />
<text text-anchor="middle" dominant-baseline="middle" x="116.0" y="484.0">7</text>
<rect rx="6" ry="6" x="147.5" y="461.5" width="55" height="45" class="" />
<text text-anchor="middle" dominant-baseline="middle" x="175.0" y="484.0">8</text>
<rect rx="6" ry="6" x="206.5" y="461.5" width="55" height="45" class="" />
<text text-anchor="middle" dominant-baseline="middle" x="234.0" y="484.0">9</text>
<rect rx="6" ry="6" x="265.5" y="461.5" width="55" height="45" class="" />
<rect rx="6" ry="6" x="29.5" y="510.5" width="55" height="45" class="" />
<rect rx="6" ry="6" x="88.5" y="510.5" width="55" height="45" class="" />
<text text-anchor="middle" dominant-baseline="middle" x="116.0" y="533.0">4</text>
<rect rx="6" ry="6" x="147.5" y="510.5" width="55" height="45" class="" />
<text text-anchor="middle" dominant-baseline="middle" x="175.0" y="533.0">5</text>
<rect rx="6" ry="6" x="206.5" y="510.5" width="55" height="45" class="" />
<text text-anchor="middle" dominant-baseline="middle" x="234.0" y="533.0">6</text>
<rect rx="6" ry="6" x="265.5" y="510.5" width="55" height="45" class="" />
<rect rx="6" ry="6" x="29.5" y="559.5" width="55" height="45" class="" />
<rect rx="6" ry="6" x="88.5" y="559.5" width="55" height="45" class="" />
<text text-anchor="middle" dominant-baseline="middle" x="116.0" y="582.0">1</text>
<rect rx="6" ry="6" x="147.5" y="559.5" width="55" height="45" class="" />
<text text-anchor="middle" dominant-baseline="middle" x="175.0" y="582.0">2</text>
<rect rx="6" ry="6" x="206.5" y="559.5" width="55" height="45" class="" />
<text text-anchor="middle" dominant-baseline="middle" x="234.0" y="582.0">3</text>
<rect rx="6" ry="6" x="265.5" y="559.5" width="55" height="45" class="" />
<rect rx="6" ry="6" x="352.0" y="461.5" width="55" height="45" class="" />
<rect rx="6" ry="6" x="411.0" y="461.5" width="55" height="45" class="" />
<rect rx="6" ry="6" x="470.0" y="461.5" width="55" height="45" class="" />
<rect rx="6" ry="6" x="529.0" y="461.5" width="55" height="45" class="" />
<rect rx="6" ry="6" x="588.0" y="461.5" width="55" height="45" class="" />
<rect rx="6" ry="6" x="352.0" y="510.5" width="55" height="45" class="" />
<rect rx="6" ry="6" x="411.0" y="510.5" width="55" height="45" class="" />
<text text-anchor="middle" dominant-baseline="middle" x="438.5" y="533.0">cmd</text>
<rect rx="6" ry="6" x="470.0" y="510.5" width="55" height="45" class="" />
<text text-anchor="middle" dominant-baseline="middle" x="497.5" y="533.0">shift</text>
<rect rx="6" ry="6" x="529.0" y="510.5" width="55" height="45" class="" />
<text text-anchor="middle" dominant-baseline="middle" x="556.5" y="533.0">alt</text>
<rect rx="6" ry="6" x="588.0" y="510.5" width="55" height="45" class="" />
<text text-anchor="middle" dominant-baseline="middle" x="615.5" y="533.0">ctrl</text>
<rect rx="6" ry="6" x="352.0" y="559.5" width="55" height="45" class="" />
<rect rx="6" ry="6" x="411.0" y="559.5" width="55" height="45" class="" />
<rect rx="6" ry="6" x="470.0" y="559.5" width="55" height="45" class="" />
<text text-anchor="middle" dominant-baseline="middle" x="497.5" y="582.0">,</text>
<rect rx="6" ry="6" x="529.0" y="559.5" width="55" height="45" class="" />
<text text-anchor="middle" dominant-baseline="middle" x="556.5" y="582.0">.</text>
<rect rx="6" ry="6" x="588.0" y="559.5" width="55" height="45" class="" />
<rect rx="6" ry="6" x="206.5" y="608.5" width="55" height="45" class="" />
<text text-anchor="middle" dominant-baseline="middle" x="234.0" y="631.0">nav</text>
<rect rx="6" ry="6" x="265.5" y="608.5" width="55" height="45" class="" />
<text text-anchor="middle" dominant-baseline="middle" x="293.0" y="622.0">º</text>
<text text-anchor="middle" dominant-baseline="middle" x="293.0" y="640.0">0</text>
<rect rx="6" ry="6" x="352.0" y="608.5" width="55" height="45" class="" />
<rect rx="6" ry="6" x="411.0" y="608.5" width="55" height="45" class="red" />
<text text-anchor="middle" dominant-baseline="middle" x="438.5" y="631.0">num</text>
<rect rx="6" ry="6" x="29.5" y="680.0" width="55" height="45" class="" />
<text text-anchor="middle" dominant-baseline="middle" x="57.0" y="702.5">%</text>
<rect rx="6" ry="6" x="88.5" y="680.0" width="55" height="45" class="" />
<text text-anchor="middle" dominant-baseline="middle" x="116.0" y="702.5">^</text>
<rect rx="6" ry="6" x="147.5" y="680.0" width="55" height="45" class="" />
<text text-anchor="middle" dominant-baseline="middle" x="175.0" y="702.5">$</text>
<rect rx="6" ry="6" x="206.5" y="680.0" width="55" height="45" class="" />
<text text-anchor="middle" dominant-baseline="middle" x="234.0" y="693.5">£</text>
<text text-anchor="middle" dominant-baseline="middle" x="234.0" y="711.5">€</text>
<rect rx="6" ry="6" x="265.5" y="680.0" width="55" height="45" class="" />
<rect rx="6" ry="6" x="29.5" y="729.0" width="55" height="45" class="" />
<text text-anchor="middle" dominant-baseline="middle" x="57.0" y="751.5">/</text>
<rect rx="6" ry="6" x="88.5" y="729.0" width="55" height="45" class="" />
<text text-anchor="middle" dominant-baseline="middle" x="116.0" y="751.5">*</text>
<rect rx="6" ry="6" x="147.5" y="729.0" width="55" height="45" class="" />
<text text-anchor="middle" dominant-baseline="middle" x="175.0" y="751.5">-</text>
<rect rx="6" ry="6" x="206.5" y="729.0" width="55" height="45" class="" />
<text text-anchor="middle" dominant-baseline="middle" x="234.0" y="751.5">+</text>
<rect rx="6" ry="6" x="265.5" y="729.0" width="55" height="45" class="" />
<text text-anchor="middle" dominant-baseline="middle" x="293.0" y="751.5">\</text>
<rect rx="6" ry="6" x="29.5" y="778.0" width="55" height="45" class="" />
<text text-anchor="middle" dominant-baseline="middle" x="57.0" y="800.5">|</text>
<rect rx="6" ry="6" x="88.5" y="778.0" width="55" height="45" class="" />
<text text-anchor="middle" dominant-baseline="middle" x="116.0" y="800.5">&amp;</text>
<rect rx="6" ry="6" x="147.5" y="778.0" width="55" height="45" class="" />
<text text-anchor="middle" dominant-baseline="middle" x="175.0" y="800.5">!</text>
<rect rx="6" ry="6" x="206.5" y="778.0" width="55" height="45" class="" />
<text text-anchor="middle" dominant-baseline="middle" x="234.0" y="800.5">=</text>
<rect rx="6" ry="6" x="265.5" y="778.0" width="55" height="45" class="" />
<rect rx="6" ry="6" x="352.0" y="680.0" width="55" height="45" class="" />
<rect rx="6" ry="6" x="411.0" y="680.0" width="55" height="45" class="" />
<text text-anchor="middle" dominant-baseline="middle" x="438.5" y="693.5">left</text>
<text text-anchor="middle" dominant-baseline="middle" x="438.5" y="711.5">2/3rd</text>
<rect rx="6" ry="6" x="470.0" y="680.0" width="55" height="45" class="" />
<text text-anchor="middle" dominant-baseline="middle" x="497.5" y="693.5">left</text>
<text text-anchor="middle" dominant-baseline="middle" x="497.5" y="711.5">half</text>
<rect rx="6" ry="6" x="529.0" y="680.0" width="55" height="45" class="" />
<text text-anchor="middle" dominant-baseline="middle" x="556.5" y="693.5">right</text>
<text text-anchor="middle" dominant-baseline="middle" x="556.5" y="711.5">half</text>
<rect rx="6" ry="6" x="588.0" y="680.0" width="55" height="45" class="" />
<text text-anchor="middle" dominant-baseline="middle" x="615.5" y="693.5">right</text>
<text text-anchor="middle" dominant-baseline="middle" x="615.5" y="711.5">2/3rd</text>
<rect rx="6" ry="6" x="352.0" y="729.0" width="55" height="45" class="" />
<rect rx="6" ry="6" x="411.0" y="729.0" width="55" height="45" class="" />
<text text-anchor="middle" dominant-baseline="middle" x="438.5" y="751.5">cmd</text>
<rect rx="6" ry="6" x="470.0" y="729.0" width="55" height="45" class="" />
<text text-anchor="middle" dominant-baseline="middle" x="497.5" y="751.5">shift</text>
<rect rx="6" ry="6" x="529.0" y="729.0" width="55" height="45" class="" />
<text text-anchor="middle" dominant-baseline="middle" x="556.5" y="751.5">alt</text>
<rect rx="6" ry="6" x="588.0" y="729.0" width="55" height="45" class="" />
<text text-anchor="middle" dominant-baseline="middle" x="615.5" y="751.5">ctrl</text>
<rect rx="6" ry="6" x="352.0" y="778.0" width="55" height="45" class="" />
<rect rx="6" ry="6" x="411.0" y="778.0" width="55" height="45" class="" />
<text text-anchor="middle" dominant-baseline="middle" x="438.5" y="791.5">left</text>
<text text-anchor="middle" dominant-baseline="middle" x="438.5" y="809.5">3rd</text>
<rect rx="6" ry="6" x="470.0" y="778.0" width="55" height="45" class="" />
<text text-anchor="middle" dominant-baseline="middle" x="497.5" y="791.5">middle</text>
<text text-anchor="middle" dominant-baseline="middle" x="497.5" y="809.5">3rd</text>
<rect rx="6" ry="6" x="529.0" y="778.0" width="55" height="45" class="" />
<text text-anchor="middle" dominant-baseline="middle" x="556.5" y="791.5">right</text>
<text text-anchor="middle" dominant-baseline="middle" x="556.5" y="809.5">3rd</text>
<rect rx="6" ry="6" x="588.0" y="778.0" width="55" height="45" class="" />
<text text-anchor="middle" dominant-baseline="middle" x="615.5" y="791.5">full</text>
<text text-anchor="middle" dominant-baseline="middle" x="615.5" y="809.5">screen</text>
<rect rx="6" ry="6" x="206.5" y="827.0" width="55" height="45" class="red" />
<text text-anchor="middle" dominant-baseline="middle" x="234.0" y="849.5">nav</text>
<rect rx="6" ry="6" x="265.5" y="827.0" width="55" height="45" class="" />
<rect rx="6" ry="6" x="352.0" y="827.0" width="55" height="45" class="" />
<rect rx="6" ry="6" x="411.0" y="827.0" width="55" height="45" class="red" />
<text text-anchor="middle" dominant-baseline="middle" x="438.5" y="849.5">num</text>
<rect rx="6" ry="6" x="29.5" y="898.5" width="55" height="45" class="green" />
<text text-anchor="middle" dominant-baseline="middle" x="57.0" y="921.0">esc</text>
<rect rx="6" ry="6" x="88.5" y="898.5" width="55" height="45" class="green" />
<text text-anchor="middle" dominant-baseline="middle" x="116.0" y="921.0">esc</text>
<rect rx="6" ry="6" x="147.5" y="898.5" width="55" height="45" class="blue" />
<text text-anchor="middle" dominant-baseline="middle" x="175.0" y="921.0">{</text>
<rect rx="6" ry="6" x="206.5" y="898.5" width="55" height="45" class="blue" />
<text text-anchor="middle" dominant-baseline="middle" x="234.0" y="921.0">{</text>
<rect rx="6" ry="6" x="265.5" y="898.5" width="55" height="45" class="" />
<rect rx="6" ry="6" x="29.5" y="947.5" width="55" height="45" class="purple" />
<text text-anchor="middle" dominant-baseline="middle" x="57.0" y="970.0">&#60;</text>
<rect rx="6" ry="6" x="88.5" y="947.5" width="55" height="45" class="purple" />
<text text-anchor="middle" dominant-baseline="middle" x="116.0" y="970.0">&#60;</text>
<rect rx="6" ry="6" x="147.5" y="947.5" width="55" height="45" class="pink" />
<text text-anchor="middle" dominant-baseline="middle" x="175.0" y="970.0">(</text>
<rect rx="6" ry="6" x="206.5" y="947.5" width="55" height="45" class="pink" />
<text text-anchor="middle" dominant-baseline="middle" x="234.0" y="970.0">(</text>
<rect rx="6" ry="6" x="265.5" y="947.5" width="55" height="45" class="" />
<rect rx="6" ry="6" x="29.5" y="996.5" width="55" height="45" class="yellow" />
<rect rx="6" ry="6" x="88.5" y="996.5" width="55" height="45" class="yellow" />
<rect rx="6" ry="6" x="147.5" y="996.5" width="55" height="45" class="grey" />
<text text-anchor="middle" dominant-baseline="middle" x="175.0" y="1019.0">[</text>
<rect rx="6" ry="6" x="206.5" y="996.5" width="55" height="45" class="grey" />
<text text-anchor="middle" dominant-baseline="middle" x="234.0" y="1019.0">[</text>
<rect rx="6" ry="6" x="265.5" y="996.5" width="55" height="45" class="" />
<rect rx="6" ry="6" x="352.0" y="898.5" width="55" height="45" class="" />
<rect rx="6" ry="6" x="411.0" y="898.5" width="55" height="45" class="blue" />
<text text-anchor="middle" dominant-baseline="middle" x="438.5" y="921.0">}</text>
<rect rx="6" ry="6" x="470.0" y="898.5" width="55" height="45" class="blue" />
<text text-anchor="middle" dominant-baseline="middle" x="497.5" y="921.0">}</text>
<rect rx="6" ry="6" x="529.0" y="898.5" width="55" height="45" class="green" />
<rect rx="6" ry="6" x="588.0" y="898.5" width="55" height="45" class="green" />
<rect rx="6" ry="6" x="352.0" y="947.5" width="55" height="45" class="" />
<rect rx="6" ry="6" x="411.0" y="947.5" width="55" height="45" class="pink" />
<text text-anchor="middle" dominant-baseline="middle" x="438.5" y="970.0">)</text>
<rect rx="6" ry="6" x="470.0" y="947.5" width="55" height="45" class="pink" />
<text text-anchor="middle" dominant-baseline="middle" x="497.5" y="970.0">)</text>
<rect rx="6" ry="6" x="529.0" y="947.5" width="55" height="45" class="purple" />
<text text-anchor="middle" dominant-baseline="middle" x="556.5" y="970.0">&#62;</text>
<rect rx="6" ry="6" x="588.0" y="947.5" width="55" height="45" class="purple" />
<text text-anchor="middle" dominant-baseline="middle" x="615.5" y="970.0">&#62;</text>
<rect rx="6" ry="6" x="352.0" y="996.5" width="55" height="45" class="" />
<rect rx="6" ry="6" x="411.0" y="996.5" width="55" height="45" class="grey" />
<text text-anchor="middle" dominant-baseline="middle" x="438.5" y="1019.0">]</text>
<rect rx="6" ry="6" x="470.0" y="996.5" width="55" height="45" class="grey" />
<text text-anchor="middle" dominant-baseline="middle" x="497.5" y="1019.0">]</text>
<rect rx="6" ry="6" x="529.0" y="996.5" width="55" height="45" class="yellow" />
<rect rx="6" ry="6" x="588.0" y="996.5" width="55" height="45" class="yellow" />
<rect rx="6" ry="6" x="206.5" y="1045.5" width="55" height="45" class="" />
<rect rx="6" ry="6" x="265.5" y="1045.5" width="55" height="45" class="" />
<rect rx="6" ry="6" x="352.0" y="1045.5" width="55" height="45" class="" />
<rect rx="6" ry="6" x="411.0" y="1045.5" width="55" height="45" class="" />
<rect rx="6" ry="6" x="29.5" y="1117.0" width="55" height="45" class="" />
<rect rx="6" ry="6" x="88.5" y="1117.0" width="55" height="45" class="green" />
<text text-anchor="middle" dominant-baseline="middle" x="116.0" y="1139.5">Q</text>
<rect rx="6" ry="6" x="147.5" y="1117.0" width="55" height="45" class="green" />
<text text-anchor="middle" dominant-baseline="middle" x="175.0" y="1139.5">Q</text>
<rect rx="6" ry="6" x="206.5" y="1117.0" width="55" height="45" class="blue" />
<text text-anchor="middle" dominant-baseline="middle" x="234.0" y="1130.5">vol</text>
<text text-anchor="middle" dominant-baseline="middle" x="234.0" y="1148.5">up</text>
<rect rx="6" ry="6" x="265.5" y="1117.0" width="55" height="45" class="blue" />
<text text-anchor="middle" dominant-baseline="middle" x="293.0" y="1130.5">vol</text>
<text text-anchor="middle" dominant-baseline="middle" x="293.0" y="1148.5">up</text>
<rect rx="6" ry="6" x="29.5" y="1166.0" width="55" height="45" class="" />
<rect rx="6" ry="6" x="88.5" y="1166.0" width="55" height="45" class="purple" />
<text text-anchor="middle" dominant-baseline="middle" x="116.0" y="1188.5">X</text>
<rect rx="6" ry="6" x="147.5" y="1166.0" width="55" height="45" class="purple" />
<text text-anchor="middle" dominant-baseline="middle" x="175.0" y="1188.5">X</text>
<rect rx="6" ry="6" x="206.5" y="1166.0" width="55" height="45" class="pink" />
<text text-anchor="middle" dominant-baseline="middle" x="234.0" y="1179.5">vol</text>
<text text-anchor="middle" dominant-baseline="middle" x="234.0" y="1197.5">down</text>
<rect rx="6" ry="6" x="265.5" y="1166.0" width="55" height="45" class="pink" />
<text text-anchor="middle" dominant-baseline="middle" x="293.0" y="1179.5">vol</text>
<text text-anchor="middle" dominant-baseline="middle" x="293.0" y="1197.5">down</text>
<rect rx="6" ry="6" x="29.5" y="1215.0" width="55" height="45" class="" />
<rect rx="6" ry="6" x="88.5" y="1215.0" width="55" height="45" class="yellow" />
<text text-anchor="middle" dominant-baseline="middle" x="116.0" y="1237.5">Z</text>
<rect rx="6" ry="6" x="147.5" y="1215.0" width="55" height="45" class="yellow" />
<text text-anchor="middle" dominant-baseline="middle" x="175.0" y="1237.5">Z</text>
<rect rx="6" ry="6" x="206.5" y="1215.0" width="55" height="45" class="grey" />
<text text-anchor="middle" dominant-baseline="middle" x="234.0" y="1237.5">mute</text>
<rect rx="6" ry="6" x="265.5" y="1215.0" width="55" height="45" class="grey" />
<text text-anchor="middle" dominant-baseline="middle" x="293.0" y="1237.5">mute</text>
<rect rx="6" ry="6" x="352.0" y="1117.0" width="55" height="45" class="blue" />
<text text-anchor="middle" dominant-baseline="middle" x="379.5" y="1139.5">next</text>
<rect rx="6" ry="6" x="411.0" y="1117.0" width="55" height="45" class="blue" />
<text text-anchor="middle" dominant-baseline="middle" x="438.5" y="1139.5">next</text>
<rect rx="6" ry="6" x="470.0" y="1117.0" width="55" height="45" class="green" />
<text text-anchor="middle" dominant-baseline="middle" x="497.5" y="1139.5">Æ</text>
<rect rx="6" ry="6" x="529.0" y="1117.0" width="55" height="45" class="green" />
<text text-anchor="middle" dominant-baseline="middle" x="556.5" y="1139.5">Æ</text>
<rect rx="6" ry="6" x="588.0" y="1117.0" width="55" height="45" class="" />
<rect rx="6" ry="6" x="352.0" y="1166.0" width="55" height="45" class="pink" />
<text text-anchor="middle" dominant-baseline="middle" x="379.5" y="1188.5">play</text>
<rect rx="6" ry="6" x="411.0" y="1166.0" width="55" height="45" class="pink" />
<text text-anchor="middle" dominant-baseline="middle" x="438.5" y="1188.5">play</text>
<rect rx="6" ry="6" x="470.0" y="1166.0" width="55" height="45" class="purple" />
<text text-anchor="middle" dominant-baseline="middle" x="497.5" y="1188.5">Å</text>
<rect rx="6" ry="6" x="529.0" y="1166.0" width="55" height="45" class="purple" />
<text text-anchor="middle" dominant-baseline="middle" x="556.5" y="1188.5">Å</text>
<rect rx="6" ry="6" x="588.0" y="1166.0" width="55" height="45" class="" />
<rect rx="6" ry="6" x="352.0" y="1215.0" width="55" height="45" class="grey" />
<text text-anchor="middle" dominant-baseline="middle" x="379.5" y="1237.5">prev</text>
<rect rx="6" ry="6" x="411.0" y="1215.0" width="55" height="45" class="grey" />
<text text-anchor="middle" dominant-baseline="middle" x="438.5" y="1237.5">prev</text>
<rect rx="6" ry="6" x="470.0" y="1215.0" width="55" height="45" class="yellow" />
<text text-anchor="middle" dominant-baseline="middle" x="497.5" y="1237.5">Ø</text>
<rect rx="6" ry="6" x="529.0" y="1215.0" width="55" height="45" class="yellow" />
<text text-anchor="middle" dominant-baseline="middle" x="556.5" y="1237.5">Ø</text>
<rect rx="6" ry="6" x="588.0" y="1215.0" width="55" height="45" class="" />
<rect rx="6" ry="6" x="206.5" y="1264.0" width="55" height="45" class="" />
<rect rx="6" ry="6" x="265.5" y="1264.0" width="55" height="45" class="" />
<rect rx="6" ry="6" x="352.0" y="1264.0" width="55" height="45" class="" />
<rect rx="6" ry="6" x="411.0" y="1264.0" width="55" height="45" class="" />
<rect rx="6" ry="6" x="29.5" y="1335.5" width="55" height="45" class="" />
<rect rx="6" ry="6" x="88.5" y="1335.5" width="55" height="45" class="pink" />
<text text-anchor="middle" dominant-baseline="middle" x="116.0" y="1358.0">reset</text>
<rect rx="6" ry="6" x="147.5" y="1335.5" width="55" height="45" class="pink" />
<text text-anchor="middle" dominant-baseline="middle" x="175.0" y="1358.0">reset</text>
<rect rx="6" ry="6" x="206.5" y="1335.5" width="55" height="45" class="pink" />
<text text-anchor="middle" dominant-baseline="middle" x="234.0" y="1358.0">reset</text>
<rect rx="6" ry="6" x="265.5" y="1335.5" width="55" height="45" class="blue" />
<text text-anchor="middle" dominant-baseline="middle" x="293.0" y="1349.0">boot</text>
<text text-anchor="middle" dominant-baseline="middle" x="293.0" y="1367.0">load</text>
<rect rx="6" ry="6" x="29.5" y="1384.5" width="55" height="45" class="" />
<rect rx="6" ry="6" x="88.5" y="1384.5" width="55" height="45" class="green" />
<text text-anchor="middle" dominant-baseline="middle" x="116.0" y="1398.0">bt</text>
<text text-anchor="middle" dominant-baseline="middle" x="116.0" y="1416.0">0</text>
<rect rx="6" ry="6" x="147.5" y="1384.5" width="55" height="45" class="green" />
<text text-anchor="middle" dominant-baseline="middle" x="175.0" y="1398.0">bt</text>
<text text-anchor="middle" dominant-baseline="middle" x="175.0" y="1416.0">0</text>
<rect rx="6" ry="6" x="206.5" y="1384.5" width="55" height="45" class="green" />
<text text-anchor="middle" dominant-baseline="middle" x="234.0" y="1398.0">bt</text>
<text text-anchor="middle" dominant-baseline="middle" x="234.0" y="1416.0">0</text>
<rect rx="6" ry="6" x="265.5" y="1384.5" width="55" height="45" class="purple" />
<text text-anchor="middle" dominant-baseline="middle" x="293.0" y="1398.0">bt</text>
<text text-anchor="middle" dominant-baseline="middle" x="293.0" y="1416.0">1</text>
<rect rx="6" ry="6" x="29.5" y="1433.5" width="55" height="45" class="" />
<rect rx="6" ry="6" x="88.5" y="1433.5" width="55" height="45" class="yellow" />
<text text-anchor="middle" dominant-baseline="middle" x="116.0" y="1447.0">bt</text>
<text text-anchor="middle" dominant-baseline="middle" x="116.0" y="1465.0">clear</text>
<rect rx="6" ry="6" x="147.5" y="1433.5" width="55" height="45" class="yellow" />
<text text-anchor="middle" dominant-baseline="middle" x="175.0" y="1447.0">bt</text>
<text text-anchor="middle" dominant-baseline="middle" x="175.0" y="1465.0">clear</text>
<rect rx="6" ry="6" x="206.5" y="1433.5" width="55" height="45" class="yellow" />
<text text-anchor="middle" dominant-baseline="middle" x="234.0" y="1447.0">bt</text>
<text text-anchor="middle" dominant-baseline="middle" x="234.0" y="1465.0">clear</text>
<rect rx="6" ry="6" x="265.5" y="1433.5" width="55" height="45" class="grey" />
<text text-anchor="middle" dominant-baseline="middle" x="293.0" y="1447.0">out</text>
<text text-anchor="middle" dominant-baseline="middle" x="293.0" y="1465.0">tggl</text>
<rect rx="6" ry="6" x="352.0" y="1335.5" width="55" height="45" class="pink" />
<text text-anchor="middle" dominant-baseline="middle" x="379.5" y="1358.0">reset</text>
<rect rx="6" ry="6" x="411.0" y="1335.5" width="55" height="45" class="blue" />
<text text-anchor="middle" dominant-baseline="middle" x="438.5" y="1349.0">boot</text>
<text text-anchor="middle" dominant-baseline="middle" x="438.5" y="1367.0">load</text>
<rect rx="6" ry="6" x="470.0" y="1335.5" width="55" height="45" class="blue" />
<text text-anchor="middle" dominant-baseline="middle" x="497.5" y="1349.0">boot</text>
<text text-anchor="middle" dominant-baseline="middle" x="497.5" y="1367.0">load</text>
<rect rx="6" ry="6" x="529.0" y="1335.5" width="55" height="45" class="blue" />
<text text-anchor="middle" dominant-baseline="middle" x="556.5" y="1349.0">boot</text>
<text text-anchor="middle" dominant-baseline="middle" x="556.5" y="1367.0">load</text>
<rect rx="6" ry="6" x="588.0" y="1335.5" width="55" height="45" class="" />
<rect rx="6" ry="6" x="352.0" y="1384.5" width="55" height="45" class="green" />
<text text-anchor="middle" dominant-baseline="middle" x="379.5" y="1398.0">bt</text>
<text text-anchor="middle" dominant-baseline="middle" x="379.5" y="1416.0">0</text>
<rect rx="6" ry="6" x="411.0" y="1384.5" width="55" height="45" class="purple" />
<text text-anchor="middle" dominant-baseline="middle" x="438.5" y="1398.0">bt</text>
<text text-anchor="middle" dominant-baseline="middle" x="438.5" y="1416.0">1</text>
<rect rx="6" ry="6" x="470.0" y="1384.5" width="55" height="45" class="purple" />
<text text-anchor="middle" dominant-baseline="middle" x="497.5" y="1398.0">bt</text>
<text text-anchor="middle" dominant-baseline="middle" x="497.5" y="1416.0">1</text>
<rect rx="6" ry="6" x="529.0" y="1384.5" width="55" height="45" class="purple" />
<text text-anchor="middle" dominant-baseline="middle" x="556.5" y="1398.0">bt</text>
<text text-anchor="middle" dominant-baseline="middle" x="556.5" y="1416.0">1</text>
<rect rx="6" ry="6" x="588.0" y="1384.5" width="55" height="45" class="" />
<rect rx="6" ry="6" x="352.0" y="1433.5" width="55" height="45" class="yellow" />
<text text-anchor="middle" dominant-baseline="middle" x="379.5" y="1447.0">bt</text>
<text text-anchor="middle" dominant-baseline="middle" x="379.5" y="1465.0">clear</text>
<rect rx="6" ry="6" x="411.0" y="1433.5" width="55" height="45" class="grey" />
<text text-anchor="middle" dominant-baseline="middle" x="438.5" y="1447.0">out</text>
<text text-anchor="middle" dominant-baseline="middle" x="438.5" y="1465.0">tggl</text>
<rect rx="6" ry="6" x="470.0" y="1433.5" width="55" height="45" class="grey" />
<text text-anchor="middle" dominant-baseline="middle" x="497.5" y="1447.0">out</text>
<text text-anchor="middle" dominant-baseline="middle" x="497.5" y="1465.0">tggl</text>
<rect rx="6" ry="6" x="529.0" y="1433.5" width="55" height="45" class="grey" />
<text text-anchor="middle" dominant-baseline="middle" x="556.5" y="1447.0">out</text>
<text text-anchor="middle" dominant-baseline="middle" x="556.5" y="1465.0">tggl</text>
<rect rx="6" ry="6" x="588.0" y="1433.5" width="55" height="45" class="" />
<rect rx="6" ry="6" x="206.5" y="1482.5" width="55" height="45" class="" />
<rect rx="6" ry="6" x="265.5" y="1482.5" width="55" height="45" class="" />
<rect rx="6" ry="6" x="352.0" y="1482.5" width="55" height="45" class="" />
<rect rx="6" ry="6" x="411.0" y="1482.5" width="55" height="45" class="" />
</svg>
